<mxfile host="app.diagrams.net" agent="Mozilla/5.0 (Windows NT 10.0; Win64; x64) AppleWebKit/537.36 (KHTML, like Gecko) Chrome/134.0.0.0 Safari/537.36" version="26.1.0">
  <diagram id="C5RBs43oDa-KdzZeNtuy" name="Page-1">
    <mxGraphModel dx="2868" dy="2713" grid="1" gridSize="10" guides="1" tooltips="1" connect="1" arrows="1" fold="1" page="1" pageScale="1" pageWidth="827" pageHeight="1169" math="0" shadow="0">
      <root>
        <mxCell id="WIyWlLk6GJQsqaUBKTNV-0" />
        <mxCell id="WIyWlLk6GJQsqaUBKTNV-1" parent="WIyWlLk6GJQsqaUBKTNV-0" />
        <mxCell id="WIyWlLk6GJQsqaUBKTNV-3" value="x_axies&lt;br&gt;y_axies&lt;div&gt;n_size&lt;/div&gt;" style="rounded=1;whiteSpace=wrap;html=1;fontSize=12;glass=0;strokeWidth=1;shadow=0;" parent="WIyWlLk6GJQsqaUBKTNV-1" vertex="1">
          <mxGeometry x="130" y="-20" width="120" height="50" as="geometry" />
        </mxCell>
        <mxCell id="inFSgU3ybnLOLT3lxpyc-0" value="points = sort(x_axies, y_axies)" style="rounded=1;whiteSpace=wrap;html=1;fontSize=12;glass=0;strokeWidth=1;shadow=0;" vertex="1" parent="WIyWlLk6GJQsqaUBKTNV-1">
          <mxGeometry x="90" y="60" width="210" height="40" as="geometry" />
        </mxCell>
        <mxCell id="inFSgU3ybnLOLT3lxpyc-1" style="edgeStyle=orthogonalEdgeStyle;rounded=0;orthogonalLoop=1;jettySize=auto;html=1;entryX=0.476;entryY=0;entryDx=0;entryDy=0;entryPerimeter=0;" edge="1" parent="WIyWlLk6GJQsqaUBKTNV-1" source="WIyWlLk6GJQsqaUBKTNV-3" target="inFSgU3ybnLOLT3lxpyc-0">
          <mxGeometry relative="1" as="geometry" />
        </mxCell>
        <mxCell id="inFSgU3ybnLOLT3lxpyc-5" style="edgeStyle=orthogonalEdgeStyle;rounded=0;orthogonalLoop=1;jettySize=auto;html=1;entryX=0.5;entryY=0;entryDx=0;entryDy=0;" edge="1" parent="WIyWlLk6GJQsqaUBKTNV-1" source="inFSgU3ybnLOLT3lxpyc-2" target="inFSgU3ybnLOLT3lxpyc-4">
          <mxGeometry relative="1" as="geometry" />
        </mxCell>
        <mxCell id="inFSgU3ybnLOLT3lxpyc-2" value="med_x = median(x_axies)&lt;br&gt;med_y = median(y_axies)" style="rounded=1;whiteSpace=wrap;html=1;fontSize=12;glass=0;strokeWidth=1;shadow=0;" vertex="1" parent="WIyWlLk6GJQsqaUBKTNV-1">
          <mxGeometry x="85" y="130" width="210" height="40" as="geometry" />
        </mxCell>
        <mxCell id="inFSgU3ybnLOLT3lxpyc-3" style="edgeStyle=orthogonalEdgeStyle;rounded=0;orthogonalLoop=1;jettySize=auto;html=1;entryX=0.522;entryY=-0.044;entryDx=0;entryDy=0;entryPerimeter=0;" edge="1" parent="WIyWlLk6GJQsqaUBKTNV-1" source="inFSgU3ybnLOLT3lxpyc-0" target="inFSgU3ybnLOLT3lxpyc-2">
          <mxGeometry relative="1" as="geometry" />
        </mxCell>
        <mxCell id="inFSgU3ybnLOLT3lxpyc-15" style="edgeStyle=orthogonalEdgeStyle;rounded=0;orthogonalLoop=1;jettySize=auto;html=1;entryX=0.5;entryY=0;entryDx=0;entryDy=0;" edge="1" parent="WIyWlLk6GJQsqaUBKTNV-1" source="inFSgU3ybnLOLT3lxpyc-4" target="inFSgU3ybnLOLT3lxpyc-14">
          <mxGeometry relative="1" as="geometry" />
        </mxCell>
        <mxCell id="inFSgU3ybnLOLT3lxpyc-32" style="edgeStyle=orthogonalEdgeStyle;rounded=0;orthogonalLoop=1;jettySize=auto;html=1;entryX=0.454;entryY=0.006;entryDx=0;entryDy=0;entryPerimeter=0;" edge="1" parent="WIyWlLk6GJQsqaUBKTNV-1" source="inFSgU3ybnLOLT3lxpyc-4" target="inFSgU3ybnLOLT3lxpyc-31">
          <mxGeometry relative="1" as="geometry">
            <Array as="points">
              <mxPoint x="380" y="240" />
              <mxPoint x="380" y="830" />
              <mxPoint x="173" y="830" />
              <mxPoint x="173" y="891" />
              <mxPoint x="174" y="891" />
            </Array>
          </mxGeometry>
        </mxCell>
        <mxCell id="inFSgU3ybnLOLT3lxpyc-33" value="нет" style="edgeLabel;html=1;align=center;verticalAlign=middle;resizable=0;points=[];" vertex="1" connectable="0" parent="inFSgU3ybnLOLT3lxpyc-32">
          <mxGeometry x="-0.9259" y="-1" relative="1" as="geometry">
            <mxPoint as="offset" />
          </mxGeometry>
        </mxCell>
        <mxCell id="inFSgU3ybnLOLT3lxpyc-4" value="i != n_size" style="rhombus;whiteSpace=wrap;html=1;shadow=0;fontFamily=Helvetica;fontSize=12;align=center;strokeWidth=1;spacing=6;spacingTop=-4;" vertex="1" parent="WIyWlLk6GJQsqaUBKTNV-1">
          <mxGeometry x="140" y="200" width="100" height="80" as="geometry" />
        </mxCell>
        <mxCell id="inFSgU3ybnLOLT3lxpyc-18" style="edgeStyle=orthogonalEdgeStyle;rounded=0;orthogonalLoop=1;jettySize=auto;html=1;entryX=0.5;entryY=0;entryDx=0;entryDy=0;" edge="1" parent="WIyWlLk6GJQsqaUBKTNV-1" source="inFSgU3ybnLOLT3lxpyc-6" target="inFSgU3ybnLOLT3lxpyc-17">
          <mxGeometry relative="1" as="geometry" />
        </mxCell>
        <mxCell id="inFSgU3ybnLOLT3lxpyc-27" style="edgeStyle=orthogonalEdgeStyle;rounded=0;orthogonalLoop=1;jettySize=auto;html=1;entryX=1;entryY=0.5;entryDx=0;entryDy=0;" edge="1" parent="WIyWlLk6GJQsqaUBKTNV-1" source="inFSgU3ybnLOLT3lxpyc-6" target="inFSgU3ybnLOLT3lxpyc-28">
          <mxGeometry relative="1" as="geometry">
            <mxPoint x="370" y="800" as="targetPoint" />
            <Array as="points">
              <mxPoint x="355" y="420" />
              <mxPoint x="355" y="795" />
            </Array>
          </mxGeometry>
        </mxCell>
        <mxCell id="inFSgU3ybnLOLT3lxpyc-6" value="j != i" style="rhombus;whiteSpace=wrap;html=1;shadow=0;fontFamily=Helvetica;fontSize=12;align=center;strokeWidth=1;spacing=6;spacingTop=-4;" vertex="1" parent="WIyWlLk6GJQsqaUBKTNV-1">
          <mxGeometry x="140" y="380" width="100" height="80" as="geometry" />
        </mxCell>
        <mxCell id="inFSgU3ybnLOLT3lxpyc-8" value="x_axies[i] != y_axies[j]" style="rhombus;whiteSpace=wrap;html=1;shadow=0;fontFamily=Helvetica;fontSize=12;align=center;strokeWidth=1;spacing=6;spacingTop=-4;" vertex="1" parent="WIyWlLk6GJQsqaUBKTNV-1">
          <mxGeometry x="110" y="560" width="160" height="80" as="geometry" />
        </mxCell>
        <mxCell id="inFSgU3ybnLOLT3lxpyc-23" value="" style="edgeStyle=orthogonalEdgeStyle;rounded=0;orthogonalLoop=1;jettySize=auto;html=1;" edge="1" parent="WIyWlLk6GJQsqaUBKTNV-1" source="inFSgU3ybnLOLT3lxpyc-11" target="inFSgU3ybnLOLT3lxpyc-22">
          <mxGeometry relative="1" as="geometry" />
        </mxCell>
        <mxCell id="inFSgU3ybnLOLT3lxpyc-11" value="&lt;div style=&quot;font-family: monospace, Consolas, &amp;quot;Courier New&amp;quot;, monospace; line-height: 19px; white-space: pre;&quot;&gt;&lt;font style=&quot;font-size: 9px; color: rgb(0, 0, 0);&quot;&gt;&lt;span&gt;koef = (&lt;/span&gt;y_axis&lt;span&gt;[&lt;/span&gt;i&lt;span&gt;]&lt;/span&gt; - y_axis&lt;span&gt;[&lt;/span&gt;j&lt;span&gt;])&lt;/span&gt; / &lt;span&gt;(&lt;/span&gt;x_axis&lt;span&gt;[&lt;/span&gt;i&lt;span&gt;]&lt;/span&gt; - x_axis&lt;span&gt;[&lt;/span&gt;j&lt;span&gt;])&lt;/span&gt;&lt;/font&gt;&lt;/div&gt;" style="rounded=0;whiteSpace=wrap;html=1;" vertex="1" parent="WIyWlLk6GJQsqaUBKTNV-1">
          <mxGeometry x="55" y="670" width="280" height="30" as="geometry" />
        </mxCell>
        <mxCell id="inFSgU3ybnLOLT3lxpyc-16" style="edgeStyle=orthogonalEdgeStyle;rounded=0;orthogonalLoop=1;jettySize=auto;html=1;entryX=0.5;entryY=0;entryDx=0;entryDy=0;" edge="1" parent="WIyWlLk6GJQsqaUBKTNV-1" source="inFSgU3ybnLOLT3lxpyc-14" target="inFSgU3ybnLOLT3lxpyc-6">
          <mxGeometry relative="1" as="geometry" />
        </mxCell>
        <mxCell id="inFSgU3ybnLOLT3lxpyc-14" value="цикл от 0 до n" style="shape=loopLimit;whiteSpace=wrap;html=1;" vertex="1" parent="WIyWlLk6GJQsqaUBKTNV-1">
          <mxGeometry x="140" y="300" width="100" height="50" as="geometry" />
        </mxCell>
        <mxCell id="inFSgU3ybnLOLT3lxpyc-21" value="" style="edgeStyle=orthogonalEdgeStyle;rounded=0;orthogonalLoop=1;jettySize=auto;html=1;" edge="1" parent="WIyWlLk6GJQsqaUBKTNV-1" source="inFSgU3ybnLOLT3lxpyc-17" target="inFSgU3ybnLOLT3lxpyc-8">
          <mxGeometry relative="1" as="geometry" />
        </mxCell>
        <mxCell id="inFSgU3ybnLOLT3lxpyc-17" value="цикл от i до j" style="shape=loopLimit;whiteSpace=wrap;html=1;" vertex="1" parent="WIyWlLk6GJQsqaUBKTNV-1">
          <mxGeometry x="140" y="490" width="100" height="50" as="geometry" />
        </mxCell>
        <mxCell id="inFSgU3ybnLOLT3lxpyc-20" style="edgeStyle=orthogonalEdgeStyle;rounded=0;orthogonalLoop=1;jettySize=auto;html=1;entryX=0.479;entryY=0.072;entryDx=0;entryDy=0;entryPerimeter=0;" edge="1" parent="WIyWlLk6GJQsqaUBKTNV-1" source="inFSgU3ybnLOLT3lxpyc-8" target="inFSgU3ybnLOLT3lxpyc-11">
          <mxGeometry relative="1" as="geometry" />
        </mxCell>
        <mxCell id="inFSgU3ybnLOLT3lxpyc-24" style="edgeStyle=orthogonalEdgeStyle;rounded=0;orthogonalLoop=1;jettySize=auto;html=1;" edge="1" parent="WIyWlLk6GJQsqaUBKTNV-1" source="inFSgU3ybnLOLT3lxpyc-22">
          <mxGeometry relative="1" as="geometry">
            <mxPoint x="140" y="420" as="targetPoint" />
            <Array as="points">
              <mxPoint x="35" y="735" />
              <mxPoint x="35" y="420" />
              <mxPoint x="140" y="420" />
            </Array>
          </mxGeometry>
        </mxCell>
        <mxCell id="inFSgU3ybnLOLT3lxpyc-22" value="&lt;div style=&quot;font-family: monospace, Consolas, &amp;quot;Courier New&amp;quot;, monospace; line-height: 19px; white-space: pre;&quot;&gt;&lt;font size=&quot;1&quot;&gt;j = j + 1&lt;/font&gt;&lt;/div&gt;" style="rounded=0;whiteSpace=wrap;html=1;" vertex="1" parent="WIyWlLk6GJQsqaUBKTNV-1">
          <mxGeometry x="55" y="720" width="280" height="30" as="geometry" />
        </mxCell>
        <mxCell id="inFSgU3ybnLOLT3lxpyc-30" style="edgeStyle=orthogonalEdgeStyle;rounded=0;orthogonalLoop=1;jettySize=auto;html=1;entryX=0;entryY=0.5;entryDx=0;entryDy=0;" edge="1" parent="WIyWlLk6GJQsqaUBKTNV-1" source="inFSgU3ybnLOLT3lxpyc-28" target="inFSgU3ybnLOLT3lxpyc-4">
          <mxGeometry relative="1" as="geometry">
            <Array as="points">
              <mxPoint x="10" y="795" />
              <mxPoint x="10" y="240" />
            </Array>
          </mxGeometry>
        </mxCell>
        <mxCell id="inFSgU3ybnLOLT3lxpyc-28" value="&lt;div style=&quot;font-family: monospace, Consolas, &amp;quot;Courier New&amp;quot;, monospace; line-height: 19px; white-space: pre;&quot;&gt;&lt;font size=&quot;1&quot;&gt;i = i + 1&lt;/font&gt;&lt;/div&gt;" style="rounded=0;whiteSpace=wrap;html=1;" vertex="1" parent="WIyWlLk6GJQsqaUBKTNV-1">
          <mxGeometry x="55" y="780" width="280" height="30" as="geometry" />
        </mxCell>
        <mxCell id="inFSgU3ybnLOLT3lxpyc-29" value="нет" style="text;html=1;align=center;verticalAlign=middle;resizable=0;points=[];autosize=1;strokeColor=none;fillColor=none;" vertex="1" parent="WIyWlLk6GJQsqaUBKTNV-1">
          <mxGeometry x="240" y="398" width="40" height="30" as="geometry" />
        </mxCell>
        <mxCell id="inFSgU3ybnLOLT3lxpyc-40" value="" style="edgeStyle=orthogonalEdgeStyle;rounded=0;orthogonalLoop=1;jettySize=auto;html=1;" edge="1" parent="WIyWlLk6GJQsqaUBKTNV-1" source="inFSgU3ybnLOLT3lxpyc-31" target="inFSgU3ybnLOLT3lxpyc-37">
          <mxGeometry relative="1" as="geometry" />
        </mxCell>
        <mxCell id="inFSgU3ybnLOLT3lxpyc-31" value="&lt;div style=&quot;font-family: monospace, Consolas, &amp;quot;Courier New&amp;quot;, monospace; line-height: 19px; white-space: pre;&quot;&gt;&lt;font style=&quot;color: rgb(0, 0, 0);&quot;&gt;sorted_koef = sort(koef)&lt;/font&gt;&lt;/div&gt;&lt;div style=&quot;font-family: monospace, Consolas, &amp;quot;Courier New&amp;quot;, monospace; line-height: 19px; white-space: pre;&quot;&gt;&lt;div style=&quot;line-height: 19px;&quot;&gt;&lt;div style=&quot;&quot;&gt;&lt;span&gt;&lt;font style=&quot;color: rgb(0, 0, 0);&quot;&gt;med_k = &lt;/font&gt;&lt;/span&gt;sorted_koef &lt;span&gt;&lt;font style=&quot;color: rgb(0, 0, 0);&quot;&gt;&lt;span&gt;[&lt;/span&gt;&lt;span&gt;len&lt;/span&gt;&lt;span&gt;(&lt;/span&gt;&lt;/font&gt;&lt;/span&gt;sorted_koef &lt;span&gt;&lt;font style=&quot;color: rgb(0, 0, 0);&quot;&gt;&lt;span&gt;)&lt;/span&gt; // &lt;span&gt;2&lt;/span&gt;&lt;span&gt;]&lt;/span&gt;&lt;span&gt;#Медианный наклон&lt;/span&gt;&lt;/font&gt;&lt;/span&gt;&lt;/div&gt;&lt;div style=&quot;&quot;&gt;&lt;font style=&quot;color: rgb(0, 0, 0);&quot;&gt;med_b = med_y - med_k * med_x #Смещение&lt;/font&gt;&lt;/div&gt;&lt;/div&gt;&lt;/div&gt;" style="rounded=0;whiteSpace=wrap;html=1;align=left;" vertex="1" parent="WIyWlLk6GJQsqaUBKTNV-1">
          <mxGeometry x="17.5" y="900" width="345" height="90" as="geometry" />
        </mxCell>
        <mxCell id="inFSgU3ybnLOLT3lxpyc-44" value="" style="edgeStyle=orthogonalEdgeStyle;rounded=0;orthogonalLoop=1;jettySize=auto;html=1;" edge="1" parent="WIyWlLk6GJQsqaUBKTNV-1" source="inFSgU3ybnLOLT3lxpyc-34" target="inFSgU3ybnLOLT3lxpyc-43">
          <mxGeometry relative="1" as="geometry" />
        </mxCell>
        <mxCell id="inFSgU3ybnLOLT3lxpyc-34" value="&lt;div style=&quot;font-family: monospace, Consolas, &amp;quot;Courier New&amp;quot;, monospace; line-height: 19px; white-space: pre;&quot;&gt;&lt;div style=&quot;line-height: 19px;&quot;&gt;&lt;font style=&quot;color: rgb(0, 0, 0);&quot;&gt;res = abs(y_axis[i] - (med_k * x_axis[i] + med_b))&lt;/font&gt;&lt;/div&gt;&lt;/div&gt;" style="rounded=0;whiteSpace=wrap;html=1;" vertex="1" parent="WIyWlLk6GJQsqaUBKTNV-1">
          <mxGeometry x="23.75" y="1190" width="332.5" height="40" as="geometry" />
        </mxCell>
        <mxCell id="inFSgU3ybnLOLT3lxpyc-35" style="edgeStyle=orthogonalEdgeStyle;rounded=0;orthogonalLoop=1;jettySize=auto;html=1;entryX=0.5;entryY=0;entryDx=0;entryDy=0;" edge="1" parent="WIyWlLk6GJQsqaUBKTNV-1" source="inFSgU3ybnLOLT3lxpyc-37" target="inFSgU3ybnLOLT3lxpyc-39">
          <mxGeometry relative="1" as="geometry" />
        </mxCell>
        <mxCell id="inFSgU3ybnLOLT3lxpyc-46" style="edgeStyle=orthogonalEdgeStyle;rounded=0;orthogonalLoop=1;jettySize=auto;html=1;entryX=1;entryY=0.5;entryDx=0;entryDy=0;" edge="1" parent="WIyWlLk6GJQsqaUBKTNV-1" source="inFSgU3ybnLOLT3lxpyc-37" target="inFSgU3ybnLOLT3lxpyc-47">
          <mxGeometry relative="1" as="geometry">
            <mxPoint x="290" y="1380" as="targetPoint" />
            <Array as="points">
              <mxPoint x="380" y="1050" />
              <mxPoint x="380" y="1360" />
            </Array>
          </mxGeometry>
        </mxCell>
        <mxCell id="inFSgU3ybnLOLT3lxpyc-37" value="i != n_size" style="rhombus;whiteSpace=wrap;html=1;shadow=0;fontFamily=Helvetica;fontSize=12;align=center;strokeWidth=1;spacing=6;spacingTop=-4;" vertex="1" parent="WIyWlLk6GJQsqaUBKTNV-1">
          <mxGeometry x="140" y="1010" width="100" height="80" as="geometry" />
        </mxCell>
        <mxCell id="inFSgU3ybnLOLT3lxpyc-42" value="" style="edgeStyle=orthogonalEdgeStyle;rounded=0;orthogonalLoop=1;jettySize=auto;html=1;" edge="1" parent="WIyWlLk6GJQsqaUBKTNV-1" source="inFSgU3ybnLOLT3lxpyc-39" target="inFSgU3ybnLOLT3lxpyc-34">
          <mxGeometry relative="1" as="geometry" />
        </mxCell>
        <mxCell id="inFSgU3ybnLOLT3lxpyc-39" value="цикл от 0 до n" style="shape=loopLimit;whiteSpace=wrap;html=1;" vertex="1" parent="WIyWlLk6GJQsqaUBKTNV-1">
          <mxGeometry x="140" y="1109" width="100" height="50" as="geometry" />
        </mxCell>
        <mxCell id="inFSgU3ybnLOLT3lxpyc-45" style="edgeStyle=orthogonalEdgeStyle;rounded=0;orthogonalLoop=1;jettySize=auto;html=1;entryX=0;entryY=0.5;entryDx=0;entryDy=0;" edge="1" parent="WIyWlLk6GJQsqaUBKTNV-1" source="inFSgU3ybnLOLT3lxpyc-43" target="inFSgU3ybnLOLT3lxpyc-37">
          <mxGeometry relative="1" as="geometry">
            <Array as="points">
              <mxPoint x="10" y="1275" />
              <mxPoint x="10" y="1050" />
            </Array>
          </mxGeometry>
        </mxCell>
        <mxCell id="inFSgU3ybnLOLT3lxpyc-43" value="i = i + 1" style="rounded=0;whiteSpace=wrap;html=1;" vertex="1" parent="WIyWlLk6GJQsqaUBKTNV-1">
          <mxGeometry x="130" y="1260" width="120" height="30" as="geometry" />
        </mxCell>
        <mxCell id="inFSgU3ybnLOLT3lxpyc-49" value="" style="edgeStyle=orthogonalEdgeStyle;rounded=0;orthogonalLoop=1;jettySize=auto;html=1;" edge="1" parent="WIyWlLk6GJQsqaUBKTNV-1" source="inFSgU3ybnLOLT3lxpyc-47" target="inFSgU3ybnLOLT3lxpyc-48">
          <mxGeometry relative="1" as="geometry" />
        </mxCell>
        <mxCell id="inFSgU3ybnLOLT3lxpyc-47" value="ans = max(res)" style="rounded=0;whiteSpace=wrap;html=1;" vertex="1" parent="WIyWlLk6GJQsqaUBKTNV-1">
          <mxGeometry x="120" y="1340" width="120" height="40" as="geometry" />
        </mxCell>
        <mxCell id="inFSgU3ybnLOLT3lxpyc-48" value="Oстановка" style="rounded=1;whiteSpace=wrap;html=1;arcSize=50;" vertex="1" parent="WIyWlLk6GJQsqaUBKTNV-1">
          <mxGeometry x="120" y="1410" width="120" height="40" as="geometry" />
        </mxCell>
        <mxCell id="inFSgU3ybnLOLT3lxpyc-50" value="нет" style="text;html=1;align=center;verticalAlign=middle;resizable=0;points=[];autosize=1;strokeColor=none;fillColor=none;" vertex="1" parent="WIyWlLk6GJQsqaUBKTNV-1">
          <mxGeometry x="240" y="1028" width="40" height="30" as="geometry" />
        </mxCell>
      </root>
    </mxGraphModel>
  </diagram>
</mxfile>
